<svg xmlns="http://www.w3.org/2000/svg" version="1.1" xmlns:xlink="http://www.w3.org/1999/xlink" width="200" height="200"><svg xmlns="http://www.w3.org/2000/svg" version="1.1" xmlns:xlink="http://www.w3.org/1999/xlink" viewBox="0 0 200 200"><rect width="200" height="200" fill="url('#gradient')"></rect><defs><linearGradient id="SvgjsLinearGradient1001" gradientTransform="rotate(45 0.5 0.5)"><stop offset="0%" stop-color="#d2510b"></stop><stop offset="100%" stop-color="#d2510b"></stop></linearGradient></defs><g><g fill="#f7ff66" transform="matrix(1.323104255834612,0,0,1.323104255834612,18.579693613467867,109.41152896055505)" stroke="#c8512e" stroke-width="0.2"><path d="M6.69-4.82L4.50-4.82L4.50 0L1.07 0L1.07-14.22L6.75-14.22Q8.38-14.22 9.63-13.62Q10.89-13.02 11.58-11.91Q12.27-10.80 12.27-9.39L12.27-9.39Q12.27-7.31 10.78-6.07Q9.29-4.82 6.69-4.82L6.69-4.82ZM4.50-11.57L4.50-7.47L6.75-7.47Q7.74-7.47 8.27-7.97Q8.79-8.47 8.79-9.38L8.79-9.38Q8.79-10.37 8.25-10.97Q7.71-11.56 6.79-11.57L6.79-11.57L4.50-11.57ZM17.74-14.22L17.74 0L14.33 0L14.33-14.22L17.74-14.22ZM30.70-12.46L23.97-2.64L30.77-2.64L30.77 0L19.70 0L19.70-1.81L26.47-11.57L19.66-11.57L19.66-14.22L30.70-14.22L30.70-12.46ZM42.90-12.46L36.17-2.64L42.97-2.64L42.97 0L31.89 0L31.89-1.81L38.67-11.57L31.86-11.57L31.86-14.22L42.90-14.22L42.90-12.46ZM53.55 0L52.72-2.66L48.03-2.66L47.21 0L43.54 0L48.76-14.22L51.98-14.22L57.24 0L53.55 0ZM50.37-10.23L48.85-5.30L51.90-5.30L50.37-10.23ZM67.23-8.30L67.23-5.66L61.70-5.66L61.70 0L58.27 0L58.27-14.22L67.78-14.22L67.78-11.57L61.70-11.57L61.70-8.30L67.23-8.30ZM76.24 0L75.41-2.66L70.71-2.66L69.89 0L66.23 0L71.45-14.22L74.67-14.22L79.92 0L76.24 0ZM73.06-10.23L71.53-5.30L74.59-5.30L73.06-10.23ZM84.38-14.22L84.38-2.64L90.35-2.64L90.35 0L80.96 0L80.96-14.22L84.38-14.22ZM99.27-4.81L102.68-4.81Q102.61-3.33 101.88-2.19Q101.14-1.05 99.82-0.43Q98.50 0.20 96.80 0.20L96.80 0.20Q93.99 0.20 92.38-1.63Q90.77-3.46 90.77-6.79L90.77-6.79L90.77-7.49Q90.77-9.58 91.50-11.15Q92.23-12.71 93.59-13.57Q94.96-14.42 96.76-14.42L96.76-14.42Q99.35-14.42 100.92-13.06Q102.49-11.70 102.71-9.31L102.71-9.31L99.29-9.31Q99.25-10.61 98.63-11.17Q98.02-11.74 96.76-11.74L96.76-11.74Q95.48-11.74 94.88-10.78Q94.29-9.82 94.26-7.72L94.26-7.72L94.26-6.72Q94.26-4.44 94.83-3.47Q95.40-2.49 96.80-2.49L96.80-2.49Q97.98-2.49 98.60-3.05Q99.23-3.60 99.27-4.81L99.27-4.81ZM116.18-14.22L116.18 0L112.77 0L112.77-5.94L107.72-5.94L107.72 0L104.30 0L104.30-14.22L107.72-14.22L107.72-8.57L112.77-8.57L112.77-14.22L116.18-14.22ZM122.00-14.22L122.00 0L118.58 0L118.58-14.22L122.00-14.22Z"></path></g></g></svg><style>@media (prefers-color-scheme: light) { :root { filter: none; } }
@media (prefers-color-scheme: dark) { :root { filter: none; } }
</style></svg>